<svg width="100" height="100" viewBox="0 0 100 100" fill="none" xmlns="http://www.w3.org/2000/svg">
<path fill-rule="evenodd" clip-rule="evenodd" d="M38 80.5L50.5 93L63 80.5V59.5L53 50.5L63 41.5V20.5L50.5 8L38 20.5V50.5V80.5ZM44 77.5V62.5V50.5V38.5V23.5L50.5 17.5L57 23.5V38.5L44 50.5L57 62.5V77.5L50.5 84L44 77.5Z" fill="#01151A"/>
<path d="M44 50.5L57 62.5V77.5L50.5 84L44 77.5V62.5V50.5ZM44 50.5L57 38.5V23.5L50.5 17.5L44 23.5V38.5V50.5ZM38 80.5L50.5 93L63 80.5V59.5L53 50.5L63 41.5V20.5L50.5 8L38 20.5V50.5V80.5Z" stroke="black"/>
<path d="M68 20.5V80.5L74 74V58.5L80.5 53.5L74 48.25V36L88 48.5H91.5L93 45.5L68 20.5Z" fill="#01151A" stroke="black"/>
<path d="M33 80.5L8 55.5V47.5L27 65.5V26.5L33 20.5V80.5Z" fill="#01151A" stroke="black"/>
</svg>
