<svg width="143" height="155" viewBox="0 0 143 155" fill="none" xmlns="http://www.w3.org/2000/svg">
<path d="M53.8693 97.5462C43.7315 86.5369 30.9791 66.8108 30.9791 66.8108C30.9791 66.8108 42.629 61.2385 48.9186 56.0132C55.0291 50.9367 62.4917 40.8613 62.4917 40.8613C62.4917 40.8613 79.0635 61.1439 84.1992 65.3262C89.3348 69.5084 93.0829 75.1705 100.377 79.1543C107.636 83.1183 120.649 85.2819 120.649 85.2819C120.649 85.2819 126.971 92.423 128.361 98.0958C130.33 106.128 129.1 112.152 124.286 118.877C119.006 126.254 110.739 138.378 110.739 138.378C110.739 138.378 90.3781 128.586 78.7802 120.083C68.2003 112.326 62.7557 107.197 53.8693 97.5462Z" fill="#4A4A4D" stroke="black"/>
<path d="M15.182 55.7111C7.23759 42.512 11.7708 25.1816 25.3447 17.0116C38.9186 8.84157 56.3549 12.9488 64.2993 26.1479C72.2437 39.347 67.7105 56.6775 54.1366 64.8475C40.5626 73.0175 23.1264 68.9102 15.182 55.7111Z" fill="#FEDAB5" stroke="#C59065"/>
<path d="M49.2934 45.6753C45.6023 39.5427 47.5815 31.5789 53.7141 27.8878C59.8467 24.1966 67.8105 26.1758 71.5016 32.3085C75.1928 38.4411 73.2136 46.4049 67.081 50.096C60.9483 53.7872 52.9846 51.8079 49.2934 45.6753Z" fill="#FEDAB5" stroke="#C59065"/>
</svg>
