<svg width="286" height="244" viewBox="0 0 286 244" fill="none" xmlns="http://www.w3.org/2000/svg">
<mask id="path-1-inside-1_4453_332" fill="white">
<path d="M143.711 191.636H258.871V238H143.711V191.636Z"/>
</mask>
<path d="M143.711 191.636H258.871V238H143.711V191.636Z" fill="#517D84"/>
<path d="M257.871 191.636V238H259.871V191.636H257.871ZM144.211 238V191.636H143.211V238H144.211Z" fill="#315960" mask="url(#path-1-inside-1_4453_332)"/>
<mask id="path-3-inside-2_4453_332" fill="white">
<path d="M28.5534 191.636H143.714V238H28.5534V191.636Z"/>
</mask>
<path d="M28.5534 191.636H143.714V238H28.5534V191.636Z" fill="#517D84"/>
<path d="M143.214 191.636V238H144.214V191.636H143.214ZM29.5534 238V191.636H27.5534V238H29.5534Z" fill="#315960" mask="url(#path-3-inside-2_4453_332)"/>
<path d="M148.097 239.864L148.131 239.886C148.135 239.889 148.138 239.893 148.142 239.897C148.172 239.927 148.216 239.973 148.27 240.032C148.378 240.15 148.521 240.317 148.663 240.513C148.965 240.929 149.191 241.378 149.191 241.736C149.191 242.094 148.965 242.543 148.663 242.959C148.521 243.155 148.378 243.322 148.27 243.44C148.257 243.454 148.245 243.467 148.234 243.479H86.1283H24.0229C24.0114 243.467 23.9992 243.454 23.9866 243.44C23.8787 243.322 23.7355 243.155 23.5934 242.959C23.2916 242.543 23.0656 242.094 23.0656 241.736C23.0656 241.378 23.2916 240.929 23.5934 240.513C23.7355 240.317 23.8787 240.15 23.9866 240.032C24.0402 239.973 24.0845 239.927 24.1147 239.897C24.1184 239.893 24.122 239.889 24.1253 239.886L24.1598 239.864C24.2123 239.831 24.2914 239.781 24.3965 239.716C24.6066 239.587 24.9203 239.396 25.3324 239.152C26.1568 238.665 27.3747 237.967 28.9444 237.13C32.0842 235.454 36.6303 233.219 42.2488 230.984C53.4894 226.511 69.0037 222.046 86.1283 222.046C103.253 222.046 118.767 226.511 130.008 230.984C135.626 233.219 140.172 235.454 143.312 237.13C144.882 237.967 146.1 238.665 146.924 239.152C147.336 239.396 147.65 239.587 147.86 239.716C147.965 239.781 148.044 239.831 148.097 239.864Z" fill="#241F24" stroke="#171417"/>
<path d="M263.254 239.864L263.289 239.886C263.292 239.889 263.296 239.893 263.299 239.897C263.329 239.927 263.374 239.973 263.427 240.032C263.535 240.15 263.678 240.317 263.821 240.513C264.122 240.929 264.348 241.378 264.348 241.736C264.348 242.094 264.122 242.543 263.821 242.959C263.678 243.155 263.535 243.322 263.427 243.44C263.415 243.454 263.403 243.467 263.391 243.479H201.286H139.18C139.169 243.467 139.157 243.454 139.144 243.44C139.036 243.322 138.893 243.155 138.751 242.959C138.449 242.543 138.223 242.094 138.223 241.736C138.223 241.378 138.449 240.929 138.751 240.513C138.893 240.317 139.036 240.15 139.144 240.032C139.198 239.973 139.242 239.927 139.272 239.897C139.276 239.893 139.279 239.889 139.283 239.886L139.317 239.864C139.37 239.831 139.449 239.781 139.554 239.716C139.764 239.587 140.078 239.396 140.49 239.152C141.314 238.665 142.532 237.967 144.102 237.13C147.242 235.454 151.788 233.219 157.406 230.984C168.647 226.511 184.161 222.046 201.286 222.046C218.41 222.046 233.925 226.511 245.165 230.984C250.784 233.219 255.33 235.454 258.469 237.13C260.039 237.967 261.257 238.665 262.082 239.152C262.494 239.396 262.807 239.587 263.017 239.716C263.122 239.781 263.202 239.831 263.254 239.864Z" fill="#241F24" stroke="#171417"/>
<path d="M31.5421 42.0861H255.881C255.881 42.0861 251.737 87.6617 252.89 116.865C254.051 146.255 261.863 191.645 261.863 191.645C261.863 191.645 190.221 206.601 143.712 206.601C97.2022 206.601 25.5598 191.645 25.5598 191.645C25.5598 191.645 33.3726 146.255 34.5333 116.865C35.6866 87.6617 31.5421 42.0861 31.5421 42.0861Z" fill="#4A4A4D"/>
<path d="M278.291 49.3544C278.291 49.5835 277.988 51.3538 274.452 54.7573C271.171 57.9161 266.177 61.446 259.706 65.2055C246.821 72.692 229.393 80.3437 211.65 87.2662C193.973 94.1631 176.263 100.229 162.951 104.576C156.301 106.747 150.761 108.486 146.889 109.68C145.277 110.177 143.955 110.579 142.962 110.879C141.969 110.579 140.647 110.177 139.035 109.68C135.163 108.486 129.623 106.747 122.973 104.576C109.661 100.229 91.9506 94.1631 74.2735 87.2662C56.5305 80.3437 39.1033 72.692 26.2178 65.2055C19.747 61.446 14.753 57.9161 11.4717 54.7573C7.9363 51.3538 7.633 49.5835 7.633 49.3544C7.633 45.7074 9.75687 41.1356 16.1023 35.9516C22.3911 30.8138 31.946 25.8533 44.4161 21.5443C69.2846 12.951 104.126 7.5 142.962 7.5C181.798 7.5 216.639 12.951 241.508 21.5443C253.978 25.8533 263.533 30.8138 269.822 35.9516C276.167 41.1356 278.291 45.7074 278.291 49.3544Z" fill="#403F41" stroke="#4A4A4D" stroke-width="15"/>
<path d="M285.291 49.3544C285.291 52.5498 283.188 56.0642 279.307 59.8002C275.443 63.5199 269.903 67.3769 263.223 71.2581C249.866 79.0182 232.041 86.8246 214.195 93.7875C196.353 100.749 178.509 106.859 165.124 111.23C158.432 113.415 152.855 115.165 148.952 116.369C147 116.971 145.467 117.436 144.422 117.751C143.899 117.908 143.499 118.028 143.229 118.108L142.962 118.187L142.695 118.108C142.425 118.028 142.025 117.908 141.502 117.751C140.457 117.436 138.924 116.971 136.972 116.369C133.069 115.165 127.492 113.415 120.8 111.23C107.415 106.859 89.5711 100.749 71.7292 93.7875C53.883 86.8246 36.0578 79.0182 22.7012 71.2581C16.0211 67.3769 10.4808 63.5199 6.61695 59.8002C2.73614 56.0642 0.632996 52.5498 0.632996 49.3544C0.632996 42.7512 4.50481 36.3873 11.6735 30.5307C18.8385 24.6771 29.2367 19.3834 42.1299 14.9282C67.9117 6.0193 103.561 0.5 142.962 0.5C182.363 0.5 218.012 6.0193 243.794 14.9282C256.687 19.3834 267.085 24.6771 274.25 30.5307C281.419 36.3873 285.291 42.7512 285.291 49.3544Z" stroke="black"/>
</svg>
