<svg width="358" height="385" viewBox="0 0 358 385" fill="none" xmlns="http://www.w3.org/2000/svg">
<path d="M349.852 207.551C349.852 304.771 273.043 383.528 178.361 383.528C83.6793 383.528 6.87012 304.771 6.87012 207.551C6.87012 110.331 83.6793 31.5736 178.361 31.5736C273.043 31.5736 349.852 110.331 349.852 207.551Z" fill="#FEDAB5" stroke="#C59065" stroke-width="2.5"/>
<path d="M215.75 339.451L177.612 357.086C177.612 357.086 160.256 350.823 148.448 341.694C145.828 339.668 142.999 337.185 140.223 334.594C131.747 326.684 123.771 317.765 123.771 317.765C123.771 317.765 140.446 317.432 158.17 317.454C166.161 317.464 174.366 317.547 181.351 317.765C189.661 318.024 199.908 318.589 209.02 319.159C221.71 319.953 232.202 320.756 232.202 320.756C228.884 325.18 221.476 333.285 217.842 337.207C216.562 338.588 215.75 339.451 215.75 339.451Z" fill="#2F0F0F"/>
<path d="M181.351 317.765L177.612 334.594M181.351 317.765C174.366 317.547 166.161 317.464 158.17 317.454M181.351 317.765C189.661 318.024 199.908 318.589 209.02 319.159M140.223 334.594C142.999 337.185 145.828 339.668 148.448 341.694C160.256 350.823 177.612 357.086 177.612 357.086L215.75 339.451C215.75 339.451 216.562 338.588 217.842 337.207M140.223 334.594C131.747 326.684 123.771 317.765 123.771 317.765C123.771 317.765 140.446 317.432 158.17 317.454M140.223 334.594C143.894 334.594 148.721 334.594 153.683 334.594M177.612 334.594C176.783 334.594 164.889 334.594 153.683 334.594M177.612 334.594C178.418 334.594 190.525 335.384 202.29 336.166M217.842 337.207C221.476 333.285 228.884 325.18 232.202 320.756C232.202 320.756 221.71 319.953 209.02 319.159M217.842 337.207C213.624 336.922 207.997 336.545 202.29 336.166M158.17 317.454L153.683 334.594M202.29 336.166L209.02 319.159" stroke="black"/>
<path d="M140.223 334.594C131.747 326.684 123.771 317.765 123.771 317.765C123.771 317.765 138.951 317.432 156.674 317.454C164.666 317.464 172.871 317.547 179.856 317.765C188.166 318.024 198.412 318.589 207.524 319.159C220.215 319.953 232.202 320.756 232.202 320.756C228.884 325.18 221.476 333.285 217.842 337.207C213.624 336.922 209.493 336.545 203.785 336.166C192.02 335.384 179.914 334.594 179.108 334.594H155.178H140.223Z" fill="white"/>
<path d="M179.856 317.765L179.108 334.594M179.856 317.765C172.871 317.547 164.666 317.464 156.674 317.454M179.856 317.765C188.166 318.024 198.412 318.589 207.524 319.159M179.108 334.594C178.279 334.594 166.385 334.594 155.178 334.594M179.108 334.594C179.914 334.594 192.02 335.384 203.785 336.166M156.674 317.454C138.951 317.432 123.771 317.765 123.771 317.765C123.771 317.765 131.747 326.684 140.223 334.594C143.894 334.594 150.217 334.594 155.178 334.594M156.674 317.454L155.178 334.594M203.785 336.166C209.493 336.545 213.624 336.922 217.842 337.207C221.476 333.285 228.884 325.18 232.202 320.756C232.202 320.756 220.215 319.953 207.524 319.159M203.785 336.166L207.524 319.159" stroke="black"/>
<g filter="url(#filter0_i_4453_255)">
<path d="M271.094 207.518C282.749 240.631 276.615 267.265 250.903 276.315C225.192 285.365 196.004 274.282 184.349 241.169C172.695 208.055 181.819 185.16 207.531 176.111C233.243 167.061 259.439 174.405 271.094 207.518Z" fill="white"/>
</g>
<ellipse cx="207.537" cy="229.207" rx="5.98234" ry="5.98235" fill="black"/>
<g filter="url(#filter1_i_4453_255)">
<path d="M90.1332 207.518C78.4784 240.631 84.612 267.265 110.324 276.315C136.035 285.365 165.223 274.282 176.878 241.169C188.532 208.055 179.408 185.16 153.696 176.111C127.984 167.061 101.788 174.405 90.1332 207.518Z" fill="white"/>
</g>
<ellipse cx="5.98234" cy="5.98235" rx="5.98234" ry="5.98235" transform="matrix(-1 0 0 1 159.672 223.225)" fill="black"/>
<path d="M181.364 227.701C181.364 227.701 179.121 220.49 179.121 215.736C179.121 210.982 181.364 203.772 181.364 203.772" stroke="black"/>
<path d="M96.0002 158L155 142M206.5 142L264.5 158" stroke="black" stroke-width="5"/>
<path d="M13.8515 232.951C12.6051 238.435 10.1125 249.702 10.1125 250.898L4.13013 223.978C4.13013 223.978 -1.01383 187.806 1.88674 164.902C4.20052 146.631 6.52767 136.184 13.8515 119.286C24.328 95.1145 36.7839 75.1663 53.4846 64.6971C70.1854 54.228 83.2459 41.505 105.083 31.7941C118.331 25.9026 137.238 19.8294 140.229 19.8294C143.22 19.8294 147.253 14.3862 152.194 11.6036C166.388 3.60891 177.795 1.85887 194.07 1.13445C209.419 0.451253 218.346 2.3606 232.956 7.11682C253.005 13.644 262.331 22.2959 279.319 34.7853C291.008 43.3788 299.509 51.9846 307.735 58.7148C315.213 64.9464 324.49 69.2987 332.412 78.9053C346.925 96.5036 351.107 134.242 351.107 134.242C351.107 134.242 357.388 165.557 357.09 185.84C356.843 202.609 352.453 226.072 351.855 228.465C351.107 231.456 345.873 250.151 345.873 250.151C345.873 250.151 345.374 242.673 344.377 238.934C344.377 238.934 341.526 239.57 339.89 240.429C335.65 242.657 336.966 248.666 332.412 250.151C329.914 250.965 325.682 250.151 325.682 250.151C325.682 250.151 329.129 220.434 327.178 201.544C326.019 190.32 326.8 183.313 321.943 173.128C318.524 165.957 316.146 161.683 309.979 156.676C303.993 151.816 298.432 152.749 292.031 148.45C289.267 146.594 287.524 145.695 285.301 143.216C281.462 138.932 282.369 134.633 279.319 129.755C273.621 120.645 268.5 116.319 259.128 111.061C249.858 105.859 232.956 103.583 232.956 103.583C232.956 103.583 207.899 105.089 191.827 105.078C176.046 105.068 162.164 104.58 149.95 103.583C137.736 102.585 137.931 98.3744 129.76 96.8524C118.85 94.8202 112.25 94.8054 101.344 96.8524C86.0666 99.7195 72.9273 105.577 65.4494 114.052C57.9714 122.527 46.529 127.828 41.5199 140.972C38.1662 149.773 41.043 155.826 38.5287 164.902C35.8768 174.475 28.6578 186.289 28.0596 188.084C27.4614 189.878 25.0647 209.93 23.5728 223.978C22.5816 233.311 23.5728 241.925 21.3294 247.907C19.086 253.89 15.3471 251.646 14.5993 252.394C13.8515 253.142 16.8427 241.925 16.8427 241.925C16.8427 241.925 14.8485 235.693 13.8515 232.951Z" fill="#703F2D" stroke="#553326"/>
<defs>
<filter id="filter0_i_4453_255" x="179.35" y="172.541" width="97.4095" height="106.804" filterUnits="userSpaceOnUse" color-interpolation-filters="sRGB">
<feFlood flood-opacity="0" result="BackgroundImageFix"/>
<feBlend mode="normal" in="SourceGraphic" in2="BackgroundImageFix" result="shape"/>
<feColorMatrix in="SourceAlpha" type="matrix" values="0 0 0 0 0 0 0 0 0 0 0 0 0 0 0 0 0 0 127 0" result="hardAlpha"/>
<feOffset dy="2.5"/>
<feComposite in2="hardAlpha" operator="arithmetic" k2="-1" k3="1"/>
<feColorMatrix type="matrix" values="0 0 0 0 0 0 0 0 0 0 0 0 0 0 0 0 0 0 0.25 0"/>
<feBlend mode="normal" in2="shape" result="effect1_innerShadow_4453_255"/>
</filter>
<filter id="filter1_i_4453_255" x="84.4675" y="172.541" width="97.4095" height="106.804" filterUnits="userSpaceOnUse" color-interpolation-filters="sRGB">
<feFlood flood-opacity="0" result="BackgroundImageFix"/>
<feBlend mode="normal" in="SourceGraphic" in2="BackgroundImageFix" result="shape"/>
<feColorMatrix in="SourceAlpha" type="matrix" values="0 0 0 0 0 0 0 0 0 0 0 0 0 0 0 0 0 0 127 0" result="hardAlpha"/>
<feOffset dy="2.5"/>
<feComposite in2="hardAlpha" operator="arithmetic" k2="-1" k3="1"/>
<feColorMatrix type="matrix" values="0 0 0 0 0 0 0 0 0 0 0 0 0 0 0 0 0 0 0.25 0"/>
<feBlend mode="normal" in2="shape" result="effect1_innerShadow_4453_255"/>
</filter>
</defs>
</svg>
