<svg width="28" height="32" viewBox="0 0 28 32" fill="none" xmlns="http://www.w3.org/2000/svg">
<path d="M21.5705 15.9149L21.5704 15.9151L21.5704 15.9153L21.5704 15.9153L21.5703 15.9156L21.3779 16.6668L20.7729 16.1805L20.4728 15.9392L20.2416 15.7533L20.2939 15.4616L20.2939 15.4615L20.2939 15.4614L20.294 15.4613L20.2943 15.4594L20.2961 15.4491L20.3034 15.4042C20.3098 15.3637 20.3191 15.3023 20.3301 15.222C20.352 15.0612 20.3805 14.8247 20.4058 14.5275C20.4563 13.9324 20.4936 13.0971 20.4404 12.1405C20.3333 10.2167 19.8631 7.85652 18.4547 5.9574C17.1135 4.14868 16.0433 3.00103 14.8903 2.29883C13.7547 1.60724 12.4941 1.32168 10.7175 1.33517C7.349 1.36075 4.76792 3.41252 2.62984 6.65828C-0.245096 11.0226 0.449135 16.0495 2.20309 21.1931C2.23923 21.2991 2.275 21.4041 2.31045 21.5081C2.88471 23.1933 3.37203 24.6233 3.88792 25.8364C4.43471 27.1222 4.99977 28.1295 5.70306 28.9083C7.07794 30.4307 9.08022 31.1865 12.905 31.1865C14.7061 31.1865 16.479 30.4324 18.1464 29.2137C19.8126 27.9959 21.3422 26.3365 22.6442 24.586C23.945 22.8373 25.0068 21.0137 25.7416 19.4828C26.1091 18.7173 26.392 18.0308 26.5819 17.4682C26.7768 16.8906 26.8579 16.4886 26.8579 16.2732C26.8579 15.1244 26.5962 14.2292 26.1223 13.6896C25.679 13.185 24.9736 12.9061 23.8426 13.1442C23.0758 13.3056 22.5084 13.9351 22.1136 14.6254C21.9217 14.961 21.7844 15.2874 21.6952 15.5308C21.6508 15.6519 21.6189 15.751 21.5983 15.8184C21.5881 15.8521 21.5807 15.8778 21.5761 15.8943L21.5713 15.912L21.5705 15.9149Z" fill="#FEDAB5" stroke="#C59065"/>
</svg>
