<svg width="118" height="26" viewBox="0 0 118 26" fill="none" xmlns="http://www.w3.org/2000/svg">
<mask id="path-1-inside-1_4466_147" fill="white">
<path d="M58.6515 0.202759H114.209V22.5701H58.6515V0.202759Z"/>
</mask>
<path d="M58.6515 0.202759H114.209V22.5701H58.6515V0.202759Z" fill="#517D84"/>
<path d="M113.209 0.202759V22.5701H115.209V0.202759H113.209ZM59.1515 22.5701V0.202759H58.1515V22.5701H59.1515Z" fill="#315960" mask="url(#path-1-inside-1_4466_147)"/>
<mask id="path-3-inside-2_4466_147" fill="white">
<path d="M3.09528 0.202759H58.6531V22.5701H3.09528V0.202759Z"/>
</mask>
<path d="M3.09528 0.202759H58.6531V22.5701H3.09528V0.202759Z" fill="#517D84"/>
<path d="M58.1531 0.202759V22.5701H59.1531V0.202759H58.1531ZM4.09528 22.5701V0.202759H2.09528V22.5701H4.09528Z" fill="#315960" mask="url(#path-3-inside-2_4466_147)"/>
<path d="M60.5174 23.6185C60.5615 23.6458 60.5958 23.6673 60.6203 23.6827C60.6312 23.6941 60.6447 23.7083 60.66 23.7251C60.7074 23.7771 60.7699 23.8501 60.8314 23.9348C60.972 24.1285 61.0367 24.2876 61.0367 24.3727C61.0367 24.4578 60.972 24.617 60.8314 24.8106C60.7925 24.8642 60.7532 24.9131 60.7175 24.955H30.8716H1.02567C0.990033 24.9131 0.950713 24.8642 0.911811 24.8106C0.771231 24.617 0.706543 24.4578 0.706543 24.3727C0.706543 24.2876 0.771231 24.1285 0.911811 23.9348C0.9733 23.8501 1.03583 23.7771 1.08322 23.7251C1.09853 23.7083 1.11197 23.6941 1.12294 23.6827C1.14738 23.6673 1.18176 23.6458 1.22585 23.6185C1.32582 23.5568 1.47572 23.4655 1.67306 23.3488C2.06774 23.1155 2.65202 22.7809 3.40575 22.3787C4.91347 21.5742 7.09788 20.5002 9.79814 19.4258C15.2021 17.2758 22.6533 15.1321 30.8716 15.1321C39.0899 15.1321 46.5411 17.2758 51.9451 19.4258C54.6453 20.5002 56.8298 21.5742 58.3375 22.3787C59.0912 22.7809 59.6755 23.1155 60.0702 23.3488C60.2675 23.4655 60.4174 23.5568 60.5174 23.6185Z" fill="#241F24" stroke="#171417"/>
<path d="M116.074 23.6185C116.118 23.6458 116.152 23.6673 116.176 23.6827C116.187 23.6941 116.201 23.7083 116.216 23.7251C116.264 23.7771 116.326 23.8501 116.388 23.9348C116.528 24.1285 116.593 24.2876 116.593 24.3727C116.593 24.4578 116.528 24.617 116.388 24.8106C116.349 24.8642 116.309 24.9131 116.274 24.955H86.4278H56.5819C56.5462 24.9131 56.5069 24.8642 56.468 24.8106C56.3274 24.617 56.2628 24.4578 56.2628 24.3727C56.2628 24.2876 56.3274 24.1285 56.468 23.9348C56.5295 23.8501 56.592 23.7771 56.6394 23.7251C56.6547 23.7083 56.6682 23.6941 56.6792 23.6827C56.7036 23.6673 56.738 23.6458 56.7821 23.6185C56.882 23.5568 57.0319 23.4655 57.2293 23.3488C57.624 23.1155 58.2082 22.7809 58.962 22.3787C60.4697 21.5742 62.6541 20.5002 65.3544 19.4258C70.7583 17.2758 78.2095 15.1321 86.4278 15.1321C94.6461 15.1321 102.097 17.2758 107.501 19.4258C110.202 20.5002 112.386 21.5742 113.894 22.3787C114.647 22.7809 115.232 23.1155 115.626 23.3488C115.824 23.4655 115.974 23.5568 116.074 23.6185Z" fill="#241F24" stroke="#171417"/>
</svg>
