<svg width="28" height="32" viewBox="0 0 28 32" fill="none" xmlns="http://www.w3.org/2000/svg">
<path d="M6.15116 15.9149L6.15123 15.9151L6.15128 15.9153L6.15128 15.9153L6.15135 15.9156L6.34381 16.6668L6.94879 16.1805L7.24885 15.9392L7.48011 15.7533L7.42778 15.4616L7.42776 15.4615L7.42774 15.4614L7.42772 15.4613L7.42739 15.4594L7.42563 15.4491L7.41829 15.4042C7.41186 15.3637 7.40254 15.3023 7.39158 15.222C7.36965 15.0612 7.34116 14.8247 7.3159 14.5275C7.26534 13.9324 7.22803 13.0971 7.28128 12.1405C7.38836 10.2167 7.85862 7.85652 9.26695 5.9574C10.6082 4.14868 11.6783 3.00103 12.8314 2.29883C13.967 1.60724 15.2276 1.32168 17.0041 1.33517C20.3727 1.36075 22.9538 3.41252 25.0918 6.65828C27.9668 11.0226 27.2725 16.0495 25.5186 21.1931C25.4825 21.2991 25.4467 21.4041 25.4112 21.5081C24.837 23.1933 24.3497 24.6233 23.8338 25.8364C23.287 27.1222 22.7219 28.1295 22.0186 28.9083C20.6437 30.4307 18.6415 31.1865 14.8167 31.1865C13.0156 31.1865 11.2427 30.4324 9.57523 29.2137C7.90909 27.9959 6.3795 26.3365 5.07743 24.586C3.77669 22.8373 2.71488 21.0137 1.98004 19.4828C1.61259 18.7173 1.32969 18.0308 1.13981 17.4682C0.94489 16.8906 0.863766 16.4886 0.86377 16.2732C0.863791 15.1244 1.12548 14.2292 1.59942 13.6896C2.04263 13.185 2.74812 12.9061 3.8791 13.1442C4.64587 13.3056 5.21328 13.9351 5.60808 14.6254C5.80001 14.961 5.93725 15.2874 6.02646 15.5308C6.07086 15.6519 6.10283 15.751 6.12335 15.8184C6.1336 15.8521 6.14096 15.8778 6.14556 15.8943L6.15039 15.912L6.15116 15.9149Z" fill="#FEDAB5" stroke="#C59065"/>
</svg>
