<svg width="303" height="200" viewBox="0 0 303 200" fill="none" xmlns="http://www.w3.org/2000/svg">
<path d="M302.033 117.402C301.182 134.546 281.277 154.084 281.277 154.084C281.277 154.084 268.874 152.894 261.074 154.084C253.497 155.24 242.315 159.856 242.315 159.856C242.315 159.856 254.559 140.616 252.394 134.603C250.229 128.59 260.072 121.116 256.024 114.194C251.996 107.305 242.315 99.0422 242.315 99.0422C242.315 99.0422 240.642 89.9932 242.315 84.612C244.685 76.9924 248.699 72.6248 256.024 69.4604C264.059 65.9892 276.925 60.0807 276.925 60.0807C276.925 60.0807 289.922 74.2101 295.279 87.0098C300.166 98.686 302.627 105.435 302.033 117.402Z" fill="#4A4A4D" stroke="black"/>
<path d="M1.0872 117.402C1.93814 134.546 21.8435 154.084 21.8435 154.084C21.8435 154.084 34.2465 152.894 42.0457 154.084C49.6229 155.24 60.805 159.856 60.805 159.856C60.805 159.856 48.5616 140.616 50.7261 134.603C52.8906 128.59 43.0484 121.116 47.0963 114.194C51.1241 107.305 60.805 99.0422 60.805 99.0422C60.805 99.0422 62.4783 89.9932 60.805 84.612C58.4355 76.9924 54.4215 72.6248 47.0963 69.4604C39.0611 65.9892 26.1947 60.0807 26.1947 60.0807C26.1947 60.0807 13.198 74.2101 7.84114 87.0098C2.95444 98.686 0.493194 105.435 1.0872 117.402Z" fill="#4A4A4D" stroke="black"/>
<path d="M42.9156 40.6066H259.368C259.368 40.6066 255.37 84.5801 256.482 112.757C257.602 141.114 265.141 184.908 265.141 184.908C265.141 184.908 196.016 199.338 151.142 199.338C106.268 199.338 37.1436 184.908 37.1436 184.908C37.1436 184.908 44.6818 141.114 45.8017 112.757C46.9144 84.5801 42.9156 40.6066 42.9156 40.6066Z" fill="#4A4A4D"/>
<path d="M280.727 47.6195C280.727 47.7288 280.502 49.3712 277.104 52.6425C273.96 55.6692 269.162 59.0626 262.927 62.6854C250.512 69.8984 233.712 77.2753 216.597 83.953C199.548 90.6049 182.465 96.4558 169.623 100.649C163.209 102.744 157.865 104.421 154.13 105.572C152.617 106.039 151.368 106.42 150.419 106.706C149.47 106.42 148.221 106.039 146.708 105.572C142.973 104.421 137.629 102.744 131.215 100.649C118.373 96.4558 101.29 90.6049 84.241 83.953C67.1256 77.2753 50.326 69.8984 37.9111 62.6854C31.6757 59.0626 26.8778 55.6692 23.7338 52.6425C20.3357 49.3712 20.1108 47.7288 20.1108 47.6195C20.1108 44.212 22.0942 39.8684 28.1856 34.892C34.2203 29.9617 43.4076 25.1882 55.4234 21.0361C79.3833 12.7568 112.969 7.5 150.419 7.5C187.869 7.5 221.455 12.7568 245.415 21.0361C257.43 25.1882 266.618 29.9617 272.652 34.892C278.744 39.8684 280.727 44.212 280.727 47.6195Z" fill="#403F41" stroke="#4A4A4D" stroke-width="15"/>
<path d="M287.727 47.6195C287.727 50.6951 285.703 54.0816 281.959 57.6854C278.232 61.2729 272.888 64.9936 266.443 68.738C253.558 76.2246 236.36 83.7563 219.141 90.4742C201.927 97.1905 184.711 103.086 171.796 107.303C165.34 109.412 159.959 111.1 156.193 112.262C154.31 112.842 152.831 113.291 151.823 113.595C151.318 113.746 150.932 113.862 150.672 113.939L150.419 114.014L150.166 113.939C149.906 113.862 149.52 113.746 149.016 113.595C148.007 113.291 146.528 112.842 144.645 112.262C140.879 111.1 135.498 109.412 129.042 107.303C116.127 103.086 98.9109 97.1905 81.6967 90.4742C64.478 83.7563 47.2804 76.2246 34.3946 68.738C27.9497 64.9936 22.6056 61.2729 18.8791 57.6854C15.1355 54.0816 13.1108 50.6951 13.1108 47.6195C13.1108 41.2558 16.8422 35.1201 23.7568 29.471C30.6677 23.8251 40.6983 18.7183 53.1372 14.42C78.0104 5.82512 112.405 0.5 150.419 0.5C188.433 0.5 222.828 5.82512 247.701 14.42C260.14 18.7183 270.17 23.8251 277.081 29.471C283.996 35.1201 287.727 41.2558 287.727 47.6195Z" stroke="black"/>
</svg>
